<svg xmlns="http://www.w3.org/2000/svg" viewBox="0 0 1200 330" width="1200" height="330" role="img" aria-label="Rakshit Hooda — full-stack developer, jack of too many trades">
  <title>Rakshit Hooda — coding at night, vibing to music</title>

  <defs>
    <linearGradient id="sky" x1="0" y1="0" x2="0" y2="1">
      <stop offset="0" stop-color="#14141b"/>
      <stop offset="0.55" stop-color="#1a1b26"/>
      <stop offset="1" stop-color="#1e2233"/>
    </linearGradient>
    <linearGradient id="shine" gradientUnits="userSpaceOnUse" x1="0" y1="0" x2="600" y2="0" spreadMethod="repeat">
      <stop offset="0" stop-color="#7aa2f7"/>
      <stop offset="0.33" stop-color="#bb9af7"/>
      <stop offset="0.66" stop-color="#7dcfff"/>
      <stop offset="1" stop-color="#7aa2f7"/>
      <animateTransform attributeName="gradientTransform" type="translate" from="0 0" to="600 0" dur="11s" repeatCount="indefinite"/>
    </linearGradient>
    <radialGradient id="moonhalo">
      <stop offset="0" stop-color="#c0caf5" stop-opacity="0.35"/>
      <stop offset="1" stop-color="#c0caf5" stop-opacity="0"/>
    </radialGradient>
    <radialGradient id="screenhalo">
      <stop offset="0" stop-color="#7aa2f7" stop-opacity="0.45"/>
      <stop offset="1" stop-color="#7aa2f7" stop-opacity="0"/>
    </radialGradient>
    <filter id="soft" x="-40%" y="-40%" width="180%" height="180%">
      <feGaussianBlur stdDeviation="6"/>
    </filter>
    <clipPath id="card">
      <rect x="0" y="0" width="1200" height="330" rx="16"/>
    </clipPath>
  </defs>

  <g clip-path="url(#card)">
    <!-- night sky -->
    <rect width="1200" height="330" fill="url(#sky)"/>

    <!-- stars -->
    <g fill="#c0caf5">
      <circle cx="90"  cy="34"  r="1.4"><animate attributeName="opacity" values="0.15;1;0.15" dur="3.1s" begin="-0.4s" repeatCount="indefinite"/></circle>
      <circle cx="150" cy="72"  r="1.1"><animate attributeName="opacity" values="0.2;0.9;0.2"  dur="2.5s" begin="-1.1s" repeatCount="indefinite"/></circle>
      <circle cx="230" cy="28"  r="1.6"><animate attributeName="opacity" values="0.15;1;0.15" dur="3.8s" begin="-2.0s" repeatCount="indefinite"/></circle>
      <circle cx="320" cy="58"  r="1.2"><animate attributeName="opacity" values="0.2;0.8;0.2"  dur="2.9s" begin="-0.7s" repeatCount="indefinite"/></circle>
      <circle cx="410" cy="30"  r="1.4"><animate attributeName="opacity" values="0.15;1;0.15" dur="3.4s" begin="-1.6s" repeatCount="indefinite"/></circle>
      <circle cx="500" cy="84"  r="1.1"><animate attributeName="opacity" values="0.2;0.9;0.2"  dur="2.6s" begin="-2.2s" repeatCount="indefinite"/></circle>
      <circle cx="560" cy="34"  r="1.3"><animate attributeName="opacity" values="0.15;1;0.15" dur="4.1s" begin="-0.2s" repeatCount="indefinite"/></circle>
      <circle cx="700" cy="30"  r="1.5"><animate attributeName="opacity" values="0.15;1;0.15" dur="3.0s" begin="-1.4s" repeatCount="indefinite"/></circle>
      <circle cx="760" cy="88"  r="1.2"><animate attributeName="opacity" values="0.2;0.8;0.2"  dur="2.7s" begin="-0.9s" repeatCount="indefinite"/></circle>
      <circle cx="860" cy="40"  r="1.4"><animate attributeName="opacity" values="0.15;1;0.15" dur="3.6s" begin="-2.6s" repeatCount="indefinite"/></circle>
      <circle cx="930" cy="64"  r="1.1"><animate attributeName="opacity" values="0.2;0.9;0.2"  dur="2.4s" begin="-0.5s" repeatCount="indefinite"/></circle>
      <circle cx="1010" cy="26" r="1.5"><animate attributeName="opacity" values="0.15;1;0.15" dur="3.3s" begin="-1.8s" repeatCount="indefinite"/></circle>
      <circle cx="1090" cy="52" r="1.2"><animate attributeName="opacity" values="0.2;0.8;0.2"  dur="2.8s" begin="-1.0s" repeatCount="indefinite"/></circle>
      <circle cx="1150" cy="30" r="1.6"><animate attributeName="opacity" values="0.15;1;0.15" dur="3.9s" begin="-0.3s" repeatCount="indefinite"/></circle>
      <circle cx="660" cy="110" r="1.0"><animate attributeName="opacity" values="0.2;0.7;0.2"  dur="2.5s" begin="-1.9s" repeatCount="indefinite"/></circle>
      <circle cx="240" cy="96"  r="1.0"><animate attributeName="opacity" values="0.2;0.7;0.2"  dur="3.2s" begin="-2.4s" repeatCount="indefinite"/></circle>
    </g>

    <!-- shooting star -->
    <g opacity="0">
      <line x1="0" y1="0" x2="30" y2="9" stroke="#c0caf5" stroke-width="1.6" stroke-linecap="round"/>
      <animate attributeName="opacity" values="0;0.9;0;0" keyTimes="0;0.05;0.12;1" dur="9s" begin="-3s" repeatCount="indefinite"/>
      <animateMotion path="M150,24 L470,92" keyPoints="0;1;1" keyTimes="0;0.12;1" calcMode="linear" dur="9s" begin="-3s" repeatCount="indefinite"/>
    </g>

    <!-- moon -->
    <circle cx="600" cy="62" r="52" fill="url(#moonhalo)">
      <animate attributeName="opacity" values="0.7;1;0.7" dur="6s" repeatCount="indefinite"/>
    </circle>
    <circle cx="600" cy="62" r="20" fill="#e2e7ff"/>
    <circle cx="594" cy="56" r="3"   fill="#a9b1d6" opacity="0.35"/>
    <circle cx="606" cy="68" r="2.4" fill="#a9b1d6" opacity="0.3"/>
    <circle cx="597" cy="66" r="1.6" fill="#a9b1d6" opacity="0.3"/>

    <!-- ═══ left column: name ═══ -->
    <text x="72" y="152" font-family="'Segoe UI','Helvetica Neue',Arial,sans-serif" font-size="58" font-weight="800" fill="#7aa2f7" opacity="0.4" filter="url(#soft)">Rakshit Hooda</text>
    <text x="72" y="152" font-family="'Segoe UI','Helvetica Neue',Arial,sans-serif" font-size="58" font-weight="800" fill="url(#shine)">Rakshit Hooda</text>

    <text x="74" y="190" font-family="'Segoe UI','Helvetica Neue',Arial,sans-serif" font-size="15" font-weight="600" letter-spacing="6" fill="#9aa5ce">JACK OF TOO MANY TRADES</text>

    <!-- mini equalizer + caption -->
    <g>
      <rect x="74"  width="5" rx="2" fill="#7aa2f7"><animate attributeName="height" values="6;22;10;24;6"  dur="1.8s"  begin="-0.0s" repeatCount="indefinite"/><animate attributeName="y" values="234;218;230;216;234" dur="1.8s"  begin="-0.0s" repeatCount="indefinite"/></rect>
      <rect x="82"  width="5" rx="2" fill="#bb9af7"><animate attributeName="height" values="10;24;8;20;10" dur="1.94s" begin="-0.26s" repeatCount="indefinite"/><animate attributeName="y" values="230;216;232;220;230" dur="1.94s" begin="-0.26s" repeatCount="indefinite"/></rect>
      <rect x="90"  width="5" rx="2" fill="#7dcfff"><animate attributeName="height" values="14;6;22;12;14" dur="2.08s" begin="-0.52s" repeatCount="indefinite"/><animate attributeName="y" values="226;234;218;228;226" dur="2.08s" begin="-0.52s" repeatCount="indefinite"/></rect>
      <rect x="98"  width="5" rx="2" fill="#7aa2f7"><animate attributeName="height" values="8;20;12;24;8"  dur="1.84s" begin="-0.78s" repeatCount="indefinite"/><animate attributeName="y" values="232;220;228;216;232" dur="1.84s" begin="-0.78s" repeatCount="indefinite"/></rect>
      <rect x="106" width="5" rx="2" fill="#bb9af7"><animate attributeName="height" values="18;8;24;10;18" dur="2.0s"  begin="-1.04s" repeatCount="indefinite"/><animate attributeName="y" values="222;232;216;230;222" dur="2.0s"  begin="-1.04s" repeatCount="indefinite"/></rect>
      <rect x="114" width="5" rx="2" fill="#7dcfff"><animate attributeName="height" values="6;18;10;22;6"  dur="1.9s"  begin="-1.3s" repeatCount="indefinite"/><animate attributeName="y" values="234;222;230;218;234" dur="1.9s"  begin="-1.3s" repeatCount="indefinite"/></rect>
      <rect x="122" width="5" rx="2" fill="#7aa2f7"><animate attributeName="height" values="12;24;8;18;12" dur="2.14s" begin="-1.56s" repeatCount="indefinite"/><animate attributeName="y" values="228;216;232;222;228" dur="2.14s" begin="-1.56s" repeatCount="indefinite"/></rect>
      <rect x="130" width="5" rx="2" fill="#bb9af7"><animate attributeName="height" values="16;8;20;12;16" dur="1.8s"  begin="-1.82s" repeatCount="indefinite"/><animate attributeName="y" values="224;232;220;228;224" dur="1.8s"  begin="-1.82s" repeatCount="indefinite"/></rect>
      <rect x="138" width="5" rx="2" fill="#7dcfff"><animate attributeName="height" values="8;22;14;24;8"  dur="2.04s" begin="-2.08s" repeatCount="indefinite"/><animate attributeName="y" values="232;218;226;216;232" dur="2.04s" begin="-2.08s" repeatCount="indefinite"/></rect>
    </g>
    <text x="162" y="234" font-family="'Cascadia Code','Fira Code',Consolas,'Courier New',monospace" font-size="13" fill="#565f89">// lofi beats to build to ♪</text>

    <!-- ═══ right scene: desk setup ═══ -->
    <!-- floor -->
    <line x1="620" y1="302" x2="1200" y2="302" stroke="#24283b" stroke-width="2" opacity="0.7"/>

    <!-- desk -->
    <rect x="664" y="232" width="508" height="20" rx="4" fill="#2a2f45"/>
    <rect x="668" y="232" width="500" height="2.5" rx="1.25" fill="#3b4261"/>
    <rect x="684"  y="252" width="8" height="50" fill="#242940"/>
    <rect x="1146" y="252" width="8" height="50" fill="#242940"/>

    <!-- plant -->
    <path d="M676,232 L702,232 L698,210 L680,210 Z" fill="#414868"/>
    <path d="M689,210 C689,196 682,192 676,186 C684,186 690,194 690,202 Z" fill="#9ece6a"/>
    <path d="M689,210 C689,194 696,190 703,185 C696,184 688,192 688,201 Z" fill="#73daca"/>
    <path d="M689,210 C687,198 689,188 689,180" stroke="#9ece6a" stroke-width="2.4" fill="none" stroke-linecap="round">
      <animateTransform attributeName="transform" type="rotate" values="-3 689 210;3 689 210;-3 689 210" dur="5s" repeatCount="indefinite"/>
    </path>

    <!-- screen glow behind the setup -->
    <ellipse cx="946" cy="150" rx="250" ry="105" fill="url(#screenhalo)" opacity="0.35">
      <animate attributeName="opacity" values="0.25;0.45;0.25" dur="4.5s" repeatCount="indefinite"/>
    </ellipse>

    <!-- left monitor, landscape, angled in a touch -->
    <rect x="766" y="210" width="10" height="18" fill="#2f3549"/>
    <rect x="746" y="226" width="50" height="6" rx="3" fill="#2f3549"/>
    <g transform="translate(828 0) skewY(-3.5) translate(-828 0)">
      <rect x="716" y="128" width="112" height="80" rx="8" fill="#16161e" stroke="#3b4261" stroke-width="1.5"/>
      <circle cx="726" cy="138" r="2" fill="#f7768e"/>
      <circle cx="733" cy="138" r="2" fill="#e0af68"/>
      <circle cx="740" cy="138" r="2" fill="#9ece6a"/>
      <rect x="726" y="148" height="4.5" rx="2.25" fill="#7dcfff" width="0">
        <animate attributeName="width" values="0;0;52;52;0;0" keyTimes="0;0.04;0.16;0.90;0.94;1" dur="8s" begin="-2s" repeatCount="indefinite"/>
      </rect>
      <rect x="736" y="159" height="4.5" rx="2.25" fill="#bb9af7" width="0">
        <animate attributeName="width" values="0;0;66;66;0;0" keyTimes="0;0.18;0.32;0.90;0.94;1" dur="8s" begin="-2s" repeatCount="indefinite"/>
      </rect>
      <rect x="736" y="170" height="4.5" rx="2.25" fill="#e0af68" width="0">
        <animate attributeName="width" values="0;0;40;40;0;0" keyTimes="0;0.34;0.46;0.90;0.94;1" dur="8s" begin="-2s" repeatCount="indefinite"/>
      </rect>
      <rect x="726" y="181" height="4.5" rx="2.25" fill="#9ece6a" width="0">
        <animate attributeName="width" values="0;0;58;58;0;0" keyTimes="0;0.48;0.62;0.90;0.94;1" dur="8s" begin="-2s" repeatCount="indefinite"/>
      </rect>
    </g>

    <!-- big centre monitor -->
    <rect x="936" y="212" width="12" height="16" fill="#2f3549"/>
    <rect x="912" y="226" width="60" height="6" rx="3" fill="#2f3549"/>
    <rect x="860" y="96" width="172" height="116" rx="9" fill="#16161e" stroke="#3b4261" stroke-width="1.5"/>
    <circle cx="872" cy="108" r="2.5" fill="#f7768e"/>
    <circle cx="880" cy="108" r="2.5" fill="#e0af68"/>
    <circle cx="888" cy="108" r="2.5" fill="#9ece6a"/>
    <!-- code typing itself -->
    <g>
      <rect x="873" y="120" height="5" rx="2.5" fill="#bb9af7" width="0">
        <animate attributeName="width" values="0;0;88;88;0;0"  keyTimes="0;0.02;0.12;0.90;0.94;1" dur="9s" begin="-6.3s" repeatCount="indefinite"/>
      </rect>
      <rect x="885" y="132" height="5" rx="2.5" fill="#7dcfff" width="0">
        <animate attributeName="width" values="0;0;114;114;0;0" keyTimes="0;0.14;0.26;0.90;0.94;1" dur="9s" begin="-6.3s" repeatCount="indefinite"/>
      </rect>
      <rect x="885" y="144" height="5" rx="2.5" fill="#9ece6a" width="0">
        <animate attributeName="width" values="0;0;68;68;0;0"  keyTimes="0;0.28;0.38;0.90;0.94;1" dur="9s" begin="-6.3s" repeatCount="indefinite"/>
      </rect>
      <rect x="897" y="156" height="5" rx="2.5" fill="#7aa2f7" width="0">
        <animate attributeName="width" values="0;0;96;96;0;0"  keyTimes="0;0.40;0.52;0.90;0.94;1" dur="9s" begin="-6.3s" repeatCount="indefinite"/>
      </rect>
      <rect x="885" y="168" height="5" rx="2.5" fill="#e0af68" width="0">
        <animate attributeName="width" values="0;0;54;54;0;0"  keyTimes="0;0.54;0.63;0.90;0.94;1" dur="9s" begin="-6.3s" repeatCount="indefinite"/>
      </rect>
      <rect x="873" y="180" height="5" rx="2.5" fill="#f7768e" width="0">
        <animate attributeName="width" values="0;0;40;40;0;0"  keyTimes="0;0.65;0.72;0.90;0.94;1" dur="9s" begin="-6.3s" repeatCount="indefinite"/>
      </rect>
      <rect x="873" y="192" width="7" height="5" rx="1.5" fill="#c0caf5">
        <animate attributeName="opacity" values="1;0;1" dur="1s" repeatCount="indefinite"/>
      </rect>
    </g>

    <!-- right monitor, vertical, angled in a touch -->
    <rect x="1091" y="212" width="10" height="16" fill="#2f3549"/>
    <rect x="1069" y="226" width="50" height="6" rx="3" fill="#2f3549"/>
    <g transform="translate(1064 0) skewY(4) translate(-1064 0)">
      <rect x="1064" y="102" width="64" height="110" rx="8" fill="#16161e" stroke="#3b4261" stroke-width="1.5"/>
      <circle cx="1074" cy="112" r="2" fill="#f7768e"/>
      <circle cx="1081" cy="112" r="2" fill="#e0af68"/>
      <circle cx="1088" cy="112" r="2" fill="#9ece6a"/>
      <rect x="1074" y="122" width="36" height="3.5" rx="1.75" fill="#3b4261"/>
      <rect x="1074" y="131" width="46" height="3.5" rx="1.75" fill="#3b4261"/>
      <rect x="1074" y="140" width="30" height="3.5" rx="1.75" fill="#3b4261"/>
      <!-- mini equalizer on the vertical screen -->
      <rect x="1074" width="5" rx="2" fill="#7aa2f7"><animate attributeName="height" values="8;20;10;16;8"  dur="1.8s"  begin="-0.0s" repeatCount="indefinite"/><animate attributeName="y" values="192;180;190;184;192" dur="1.8s"  begin="-0.0s" repeatCount="indefinite"/></rect>
      <rect x="1083" width="5" rx="2" fill="#bb9af7"><animate attributeName="height" values="12;7;18;9;12" dur="2.0s"  begin="-0.3s" repeatCount="indefinite"/><animate attributeName="y" values="188;193;182;191;188" dur="2.0s"  begin="-0.3s" repeatCount="indefinite"/></rect>
      <rect x="1092" width="5" rx="2" fill="#7dcfff"><animate attributeName="height" values="9;16;7;20;9"  dur="1.9s"  begin="-0.6s" repeatCount="indefinite"/><animate attributeName="y" values="191;184;193;180;191" dur="1.9s"  begin="-0.6s" repeatCount="indefinite"/></rect>
      <rect x="1101" width="5" rx="2" fill="#7aa2f7"><animate attributeName="height" values="15;9;20;10;15" dur="2.1s" begin="-0.9s" repeatCount="indefinite"/><animate attributeName="y" values="185;191;180;190;185" dur="2.1s" begin="-0.9s" repeatCount="indefinite"/></rect>
      <rect x="1110" width="5" rx="2" fill="#bb9af7"><animate attributeName="height" values="7;18;12;16;7" dur="1.85s" begin="-1.2s" repeatCount="indefinite"/><animate attributeName="y" values="193;182;188;184;193" dur="1.85s" begin="-1.2s" repeatCount="indefinite"/></rect>
    </g>

    <!-- coffee mug + steam -->
    <rect x="1132" y="206" width="26" height="25" rx="3.5" fill="#f7768e"/>
    <path d="M1158,212 a6.5,6.5 0 0 1 0,13" stroke="#f7768e" stroke-width="3.5" fill="none"/>
    <g stroke="#9aa5ce" stroke-width="2" fill="none" stroke-linecap="round">
      <path d="M1139,200 q4,-8 0,-14 q-4,-6 2,-12" opacity="0">
        <animateTransform attributeName="transform" type="translate" values="0 0;0 -12" dur="3.4s" begin="-0.0s" repeatCount="indefinite"/>
        <animate attributeName="opacity" values="0;0.65;0" dur="3.4s" begin="-0.0s" repeatCount="indefinite"/>
      </path>
      <path d="M1146,200 q-4,-8 0,-14 q4,-6 -2,-12" opacity="0">
        <animateTransform attributeName="transform" type="translate" values="0 0;0 -12" dur="3.4s" begin="-1.1s" repeatCount="indefinite"/>
        <animate attributeName="opacity" values="0;0.6;0" dur="3.4s" begin="-1.1s" repeatCount="indefinite"/>
      </path>
      <path d="M1153,200 q4,-8 0,-14 q-4,-6 2,-12" opacity="0">
        <animateTransform attributeName="transform" type="translate" values="0 0;0 -12" dur="3.4s" begin="-2.2s" repeatCount="indefinite"/>
        <animate attributeName="opacity" values="0;0.55;0" dur="3.4s" begin="-2.2s" repeatCount="indefinite"/>
      </path>
    </g>

    <!-- pc tower under the desk -->
    <rect x="700" y="256" width="36" height="44" rx="4" fill="#262b3d" stroke="#3b4261" stroke-width="1"/>
    <line x1="708" y1="272" x2="728" y2="272" stroke="#3b4261" stroke-width="2" stroke-linecap="round"/>
    <line x1="708" y1="278" x2="728" y2="278" stroke="#3b4261" stroke-width="2" stroke-linecap="round"/>
    <circle cx="710" cy="264" r="2" fill="#9ece6a">
      <animate attributeName="opacity" values="1;0.2;1" dur="2.2s" repeatCount="indefinite"/>
    </circle>

    <!-- keyboard on the desk edge -->
    <rect x="882" y="237" width="130" height="9" rx="4" fill="#2f3549"/>
    <rect x="886" y="237" width="122" height="2" rx="1" fill="#3b4261"/>

    <!-- person, seen from behind -->
    <g>
      <!-- torso with sloped shoulders -->
      <path d="M908,252 L908,208 Q908,188 928,184 L964,184 Q984,188 984,208 L984,252 Z" fill="#414868"/>
      <!-- arms down to the keyboard -->
      <path d="M922,196 Q900,218 898,234" stroke="#414868" stroke-width="9" fill="none" stroke-linecap="round"/>
      <path d="M970,196 Q992,218 994,234" stroke="#414868" stroke-width="9" fill="none" stroke-linecap="round"/>
      <!-- hands typing -->
      <circle cx="898" cy="236" r="5" fill="#b78e6c">
        <animate attributeName="cy" values="236;234.5;236" dur="0.42s" repeatCount="indefinite"/>
      </circle>
      <circle cx="994" cy="236" r="5" fill="#b78e6c">
        <animate attributeName="cy" values="236;234.5;236" dur="0.38s" begin="-0.2s" repeatCount="indefinite"/>
      </circle>
      <!-- neck -->
      <rect x="940" y="170" width="12" height="16" rx="3" fill="#b78e6c"/>
      <!-- nodding head: skin, hair, headphones -->
      <g>
        <circle cx="946" cy="152" r="17" fill="#b78e6c"/>
        <path d="M929,157 A17.5,17.5 0 1 1 963,157 Z" fill="#32384f"/>
        <path d="M934,163 Q938,166 940,163" stroke="#32384f" stroke-width="2" fill="none" stroke-linecap="round"/>
        <path d="M952,163 Q956,166 958,163" stroke="#32384f" stroke-width="2" fill="none" stroke-linecap="round"/>
        <path d="M929,145 A17.5,17.5 0 0 1 963,145" stroke="#7dcfff" stroke-width="4" fill="none" stroke-linecap="round"/>
        <rect x="920" y="146" width="10" height="17" rx="4.5" fill="#7dcfff">
          <animate attributeName="opacity" values="0.75;1;0.75" dur="2.6s" repeatCount="indefinite"/>
        </rect>
        <rect x="962" y="146" width="10" height="17" rx="4.5" fill="#7dcfff">
          <animate attributeName="opacity" values="0.75;1;0.75" dur="2.6s" begin="-1.3s" repeatCount="indefinite"/>
        </rect>
        <animateTransform attributeName="transform" type="translate" values="0 0;0 2;0 0" dur="1.1s" repeatCount="indefinite"/>
      </g>
    </g>

    <!-- floating notes -->
    <g font-family="'Segoe UI',Arial,sans-serif">
      <text x="968" y="134" font-size="18" fill="#bb9af7" opacity="0">♪
        <animateTransform attributeName="transform" type="translate" values="0 0;-8 -30;-18 -62" dur="5s" begin="-0.0s" repeatCount="indefinite"/>
        <animate attributeName="opacity" values="0;0.95;0" keyTimes="0;0.25;1" dur="5s" begin="-0.0s" repeatCount="indefinite"/>
      </text>
      <text x="980" y="144" font-size="15" fill="#7dcfff" opacity="0">♫
        <animateTransform attributeName="transform" type="translate" values="0 0;-4 -34;-10 -66" dur="5s" begin="-1.7s" repeatCount="indefinite"/>
        <animate attributeName="opacity" values="0;0.9;0" keyTimes="0;0.25;1" dur="5s" begin="-1.7s" repeatCount="indefinite"/>
      </text>
      <text x="962" y="126" font-size="13" fill="#7aa2f7" opacity="0">♪
        <animateTransform attributeName="transform" type="translate" values="0 0;-12 -28;-22 -58" dur="5s" begin="-3.4s" repeatCount="indefinite"/>
        <animate attributeName="opacity" values="0;0.85;0" keyTimes="0;0.25;1" dur="5s" begin="-3.4s" repeatCount="indefinite"/>
      </text>
    </g>

    <!-- chair, closest to camera -->
    <rect x="884" y="240" width="22" height="6" rx="3" fill="#262b3d"/>
    <rect x="893" y="246" width="5" height="18" fill="#262b3d"/>
    <rect x="986" y="240" width="22" height="6" rx="3" fill="#262b3d"/>
    <rect x="996" y="246" width="5" height="18" fill="#262b3d"/>
    <rect x="932" y="204" width="28" height="10" rx="5" fill="#2f3549"/>
    <rect x="918" y="216" width="56" height="74" rx="12" fill="#2f3549"/>
    <rect x="942" y="290" width="8" height="6" fill="#2f3549"/>
    <line x1="908" y1="297" x2="984" y2="297" stroke="#2f3549" stroke-width="5" stroke-linecap="round"/>
    <circle cx="910" cy="298" r="4" fill="#2f3549"/>
    <circle cx="946" cy="298" r="4" fill="#2f3549"/>
    <circle cx="982" cy="298" r="4" fill="#2f3549"/>

    <!-- little white cat on patrol -->
    <g>
      <g>
        <!-- stepping legs -->
        <g fill="#eceff9">
          <rect x="-6" y="-8" width="3" height="8" rx="1.5">
            <animateTransform attributeName="transform" type="translate" values="0 0;0 -2;0 0" dur="0.5s" repeatCount="indefinite"/>
          </rect>
          <rect x="2" y="-8" width="3" height="8" rx="1.5">
            <animateTransform attributeName="transform" type="translate" values="0 0;0 -2;0 0" dur="0.5s" begin="-0.25s" repeatCount="indefinite"/>
          </rect>
          <rect x="18" y="-8" width="3" height="8" rx="1.5">
            <animateTransform attributeName="transform" type="translate" values="0 0;0 -2;0 0" dur="0.5s" begin="-0.25s" repeatCount="indefinite"/>
          </rect>
          <rect x="24" y="-8" width="3" height="8" rx="1.5">
            <animateTransform attributeName="transform" type="translate" values="0 0;0 -2;0 0" dur="0.5s" repeatCount="indefinite"/>
          </rect>
        </g>
        <!-- body, tail, head -->
        <g>
          <path d="M27,-12 Q34,-16 33,-24" stroke="#eceff9" stroke-width="3" fill="none" stroke-linecap="round">
            <animateTransform attributeName="transform" type="rotate" values="-10 27 -12;12 27 -12;-10 27 -12" dur="2.4s" repeatCount="indefinite"/>
          </path>
          <ellipse cx="14" cy="-10" rx="14" ry="8" fill="#eceff9"/>
          <circle cx="-2" cy="-16" r="8" fill="#eceff9"/>
          <path d="M-8,-21 L-6,-29 L-1,-22 Z" fill="#eceff9"/>
          <path d="M0,-22 L4,-29 L6,-21 Z" fill="#eceff9"/>
          <path d="M-6.5,-22 L-5.7,-26 L-3.2,-22.6 Z" fill="#f7768e" opacity="0.55"/>
          <path d="M1.2,-22.4 L3.4,-26 L4.6,-21.8 Z" fill="#f7768e" opacity="0.55"/>
          <path d="M-7,-16 q2,1.6 4,0" stroke="#565f89" stroke-width="1" fill="none" stroke-linecap="round"/>
          <circle cx="-9.5" cy="-14" r="1" fill="#f7768e"/>
          <path d="M-8,-9.5 Q-2,-6.5 4,-9.5" stroke="#f7768e" stroke-width="1.5" fill="none" stroke-linecap="round"/>
          <animateTransform attributeName="transform" type="translate" values="0 0;0 -1.5;0 0" dur="0.5s" repeatCount="indefinite"/>
        </g>
      </g>
      <animateTransform attributeName="transform" type="translate" values="1180 300;-60 300" dur="22s" repeatCount="1" fill="freeze"/>
    </g>

    <!-- ...then it hops up and settles on the desk, tail waving -->
    <g opacity="0" transform="translate(1038 250)">
      <animate attributeName="opacity" values="0;1" begin="23s" dur="0.6s" fill="freeze"/>
      <path d="M8,-4 Q16,-9 14,-18" stroke="#eceff9" stroke-width="3" fill="none" stroke-linecap="round">
        <animateTransform attributeName="transform" type="rotate" values="-14 8 -4;16 8 -4;-14 8 -4" dur="2.2s" repeatCount="indefinite"/>
      </path>
      <g>
        <path d="M-9,0 Q-12,-14 -4,-19 Q2,-22 6,-18 Q11,-13 9,0 Z" fill="#eceff9"/>
        <rect x="-7.5" y="-8" width="2.5" height="8" rx="1.25" fill="#eceff9"/>
        <rect x="-2.5" y="-8" width="2.5" height="8" rx="1.25" fill="#eceff9"/>
        <circle cx="-1" cy="-25" r="8" fill="#eceff9"/>
        <path d="M-7,-30 L-5,-37 L0,-31 Z" fill="#eceff9"/>
        <path d="M1,-31 L5,-37 L7,-30 Z" fill="#eceff9"/>
        <path d="M-5.7,-31 L-4.9,-35 L-2.4,-31.6 Z" fill="#f7768e" opacity="0.55"/>
        <path d="M2.2,-31.4 L4.4,-35 L5.6,-30.8 Z" fill="#f7768e" opacity="0.55"/>
        <path d="M-6,-25 q2,1.6 4,0" stroke="#565f89" stroke-width="1" fill="none" stroke-linecap="round"/>
        <circle cx="-8.5" cy="-23" r="1" fill="#f7768e"/>
        <path d="M-8,-18 Q-1,-15 6,-18" stroke="#f7768e" stroke-width="1.5" fill="none" stroke-linecap="round"/>
        <animateTransform attributeName="transform" type="translate" values="0 0;0 -0.8;0 0" dur="2.6s" repeatCount="indefinite"/>
      </g>
    </g>

    <!-- animated bottom edge -->
    <rect x="0" y="324" width="1200" height="6" fill="url(#shine)" opacity="0.9"/>
  </g>

  <!-- card border -->
  <rect x="0.75" y="0.75" width="1198.5" height="328.5" rx="16" fill="none" stroke="#2f3549" stroke-width="1.5"/>
</svg>
